<?xml version="1.0" encoding="UTF-8" standalone="no"?>
<!DOCTYPE svg PUBLIC "-//W3C//DTD SVG 1.1//EN"
 "http://www.w3.org/Graphics/SVG/1.1/DTD/svg11.dtd">
<!-- Generated by graphviz version 2.50.0 (20211209.0339)
 -->
<!-- Title: snakemake_dag Pages: 1 -->
<svg width="565pt" height="332pt"
 viewBox="0.00 0.00 564.50 332.00" xmlns="http://www.w3.org/2000/svg" xmlns:xlink="http://www.w3.org/1999/xlink">
<g id="graph0" class="graph" transform="scale(1 1) rotate(0) translate(4 328)">
<title>snakemake_dag</title>
<polygon fill="white" stroke="transparent" points="-4,4 -4,-328 560.5,-328 560.5,4 -4,4"/>
<!-- 0 -->
<g id="node1" class="node">
<title>0</title>
<path fill="none" stroke="#d85656" stroke-width="2" d="M266,-36C266,-36 236,-36 236,-36 230,-36 224,-30 224,-24 224,-24 224,-12 224,-12 224,-6 230,0 236,0 236,0 266,0 266,0 272,0 278,-6 278,-12 278,-12 278,-24 278,-24 278,-30 272,-36 266,-36"/>
<text text-anchor="middle" x="251" y="-15.5" font-family="sans" font-size="10.00">all</text>
</g>
<!-- 1 -->
<g id="node2" class="node">
<title>1</title>
<path fill="none" stroke="#56d8d8" stroke-width="2" stroke-dasharray="5,2" d="M42,-180C42,-180 12,-180 12,-180 6,-180 0,-174 0,-168 0,-168 0,-156 0,-156 0,-150 6,-144 12,-144 12,-144 42,-144 42,-144 48,-144 54,-150 54,-156 54,-156 54,-168 54,-168 54,-174 48,-180 42,-180"/>
<text text-anchor="middle" x="27" y="-159.5" font-family="sans" font-size="10.00">get_gtf</text>
</g>
<!-- 1&#45;&gt;0 -->
<g id="edge1" class="edge">
<title>1&#45;&gt;0</title>
<path fill="none" stroke="grey" stroke-width="2" d="M25.02,-143.88C23.74,-123.99 24.92,-91.42 43,-72 65.97,-47.32 160.38,-31.05 213.76,-23.63"/>
<polygon fill="grey" stroke="grey" stroke-width="2" points="214.42,-27.08 223.86,-22.27 213.48,-20.14 214.42,-27.08"/>
</g>
<!-- 3 -->
<g id="node4" class="node">
<title>3</title>
<path fill="none" stroke="#569ad8" stroke-width="2" stroke-dasharray="5,2" d="M108,-108C108,-108 64,-108 64,-108 58,-108 52,-102 52,-96 52,-96 52,-84 52,-84 52,-78 58,-72 64,-72 64,-72 108,-72 108,-72 114,-72 120,-78 120,-84 120,-84 120,-96 120,-96 120,-102 114,-108 108,-108"/>
<text text-anchor="middle" x="86" y="-87.5" font-family="sans" font-size="10.00">star_index</text>
</g>
<!-- 1&#45;&gt;3 -->
<g id="edge12" class="edge">
<title>1&#45;&gt;3</title>
<path fill="none" stroke="grey" stroke-width="2" d="M41.58,-143.7C48.66,-135.3 57.28,-125.07 65.05,-115.86"/>
<polygon fill="grey" stroke="grey" stroke-width="2" points="67.81,-118.01 71.58,-108.1 62.46,-113.49 67.81,-118.01"/>
</g>
<!-- 2 -->
<g id="node3" class="node">
<title>2</title>
<path fill="none" stroke="#d89556" stroke-width="2" stroke-dasharray="5,2" d="M142.5,-180C142.5,-180 89.5,-180 89.5,-180 83.5,-180 77.5,-174 77.5,-168 77.5,-168 77.5,-156 77.5,-156 77.5,-150 83.5,-144 89.5,-144 89.5,-144 142.5,-144 142.5,-144 148.5,-144 154.5,-150 154.5,-156 154.5,-156 154.5,-168 154.5,-168 154.5,-174 148.5,-180 142.5,-180"/>
<text text-anchor="middle" x="116" y="-159.5" font-family="sans" font-size="10.00">get_genome</text>
</g>
<!-- 2&#45;&gt;0 -->
<g id="edge2" class="edge">
<title>2&#45;&gt;0</title>
<path fill="none" stroke="grey" stroke-width="2" d="M124.07,-143.8C133.61,-124.71 150.89,-93.74 172,-72 184.48,-59.15 200.57,-47.67 214.97,-38.71"/>
<polygon fill="grey" stroke="grey" stroke-width="2" points="216.91,-41.63 223.67,-33.47 213.3,-35.63 216.91,-41.63"/>
</g>
<!-- 2&#45;&gt;3 -->
<g id="edge11" class="edge">
<title>2&#45;&gt;3</title>
<path fill="none" stroke="grey" stroke-width="2" d="M108.58,-143.7C105.21,-135.81 101.13,-126.3 97.38,-117.55"/>
<polygon fill="grey" stroke="grey" stroke-width="2" points="100.49,-115.92 93.33,-108.1 94.05,-118.67 100.49,-115.92"/>
</g>
<!-- 3&#45;&gt;0 -->
<g id="edge3" class="edge">
<title>3&#45;&gt;0</title>
<path fill="none" stroke="grey" stroke-width="2" d="M120.19,-74.5C147.71,-62.82 186.32,-46.44 214.46,-34.5"/>
<polygon fill="grey" stroke="grey" stroke-width="2" points="216.1,-37.61 223.94,-30.48 213.36,-31.17 216.1,-37.61"/>
</g>
<!-- 4 -->
<g id="node5" class="node">
<title>4</title>
<path fill="none" stroke="#56d89a" stroke-width="2" d="M201,-252C201,-252 171,-252 171,-252 165,-252 159,-246 159,-240 159,-240 159,-228 159,-228 159,-222 165,-216 171,-216 171,-216 201,-216 201,-216 207,-216 213,-222 213,-228 213,-228 213,-240 213,-240 213,-246 207,-252 201,-252"/>
<text text-anchor="middle" x="186" y="-231.5" font-family="sans" font-size="10.00">star</text>
</g>
<!-- 4&#45;&gt;0 -->
<g id="edge4" class="edge">
<title>4&#45;&gt;0</title>
<path fill="none" stroke="grey" stroke-width="2" d="M188.93,-215.76C192.17,-197.7 197.89,-168.59 205,-144 214.99,-109.44 229.83,-70.73 239.93,-45.67"/>
<polygon fill="grey" stroke="grey" stroke-width="2" points="243.28,-46.71 243.81,-36.13 236.8,-44.07 243.28,-46.71"/>
</g>
<!-- 10 -->
<g id="node11" class="node">
<title>10</title>
<path fill="none" stroke="#97d856" stroke-width="2" d="M256,-180C256,-180 226,-180 226,-180 220,-180 214,-174 214,-168 214,-168 214,-156 214,-156 214,-150 220,-144 226,-144 226,-144 256,-144 256,-144 262,-144 268,-150 268,-156 268,-156 268,-168 268,-168 268,-174 262,-180 256,-180"/>
<text text-anchor="middle" x="241" y="-159.5" font-family="sans" font-size="10.00">htseq</text>
</g>
<!-- 4&#45;&gt;10 -->
<g id="edge16" class="edge">
<title>4&#45;&gt;10</title>
<path fill="none" stroke="grey" stroke-width="2" d="M199.6,-215.7C206.12,-207.39 214.07,-197.28 221.25,-188.14"/>
<polygon fill="grey" stroke="grey" stroke-width="2" points="224.13,-190.13 227.56,-180.1 218.63,-185.81 224.13,-190.13"/>
</g>
<!-- 5 -->
<g id="node6" class="node">
<title>5</title>
<path fill="none" stroke="#d6d856" stroke-width="2" d="M236.5,-324C236.5,-324 127.5,-324 127.5,-324 121.5,-324 115.5,-318 115.5,-312 115.5,-312 115.5,-300 115.5,-300 115.5,-294 121.5,-288 127.5,-288 127.5,-288 236.5,-288 236.5,-288 242.5,-288 248.5,-294 248.5,-300 248.5,-300 248.5,-312 248.5,-312 248.5,-318 242.5,-324 236.5,-324"/>
<text text-anchor="middle" x="182" y="-309" font-family="sans" font-size="10.00">trim</text>
<text text-anchor="middle" x="182" y="-298" font-family="sans" font-size="10.00">sample: IS24_CCL141_1</text>
</g>
<!-- 5&#45;&gt;4 -->
<g id="edge13" class="edge">
<title>5&#45;&gt;4</title>
<path fill="none" stroke="grey" stroke-width="2" d="M182.99,-287.7C183.43,-279.98 183.96,-270.71 184.45,-262.11"/>
<polygon fill="grey" stroke="grey" stroke-width="2" points="187.95,-262.29 185.02,-252.1 180.96,-261.89 187.95,-262.29"/>
</g>
<!-- 6 -->
<g id="node7" class="node">
<title>6</title>
<path fill="none" stroke="#56d89a" stroke-width="2" d="M348,-252C348,-252 318,-252 318,-252 312,-252 306,-246 306,-240 306,-240 306,-228 306,-228 306,-222 312,-216 318,-216 318,-216 348,-216 348,-216 354,-216 360,-222 360,-228 360,-228 360,-240 360,-240 360,-246 354,-252 348,-252"/>
<text text-anchor="middle" x="333" y="-231.5" font-family="sans" font-size="10.00">star</text>
</g>
<!-- 6&#45;&gt;0 -->
<g id="edge5" class="edge">
<title>6&#45;&gt;0</title>
<path fill="none" stroke="grey" stroke-width="2" d="M341.31,-215.79C345.74,-205.63 350.74,-192.38 353,-180 361.75,-132.05 362.72,-111.37 334,-72 322.29,-55.95 304.11,-43.55 287.75,-34.8"/>
<polygon fill="grey" stroke="grey" stroke-width="2" points="288.89,-31.45 278.39,-30.06 285.73,-37.7 288.89,-31.45"/>
</g>
<!-- 11 -->
<g id="node12" class="node">
<title>11</title>
<path fill="none" stroke="#97d856" stroke-width="2" d="M332,-180C332,-180 302,-180 302,-180 296,-180 290,-174 290,-168 290,-168 290,-156 290,-156 290,-150 296,-144 302,-144 302,-144 332,-144 332,-144 338,-144 344,-150 344,-156 344,-156 344,-168 344,-168 344,-174 338,-180 332,-180"/>
<text text-anchor="middle" x="317" y="-159.5" font-family="sans" font-size="10.00">htseq</text>
</g>
<!-- 6&#45;&gt;11 -->
<g id="edge17" class="edge">
<title>6&#45;&gt;11</title>
<path fill="none" stroke="grey" stroke-width="2" d="M329.04,-215.7C327.28,-207.98 325.16,-198.71 323.2,-190.11"/>
<polygon fill="grey" stroke="grey" stroke-width="2" points="326.55,-189.07 320.91,-180.1 319.73,-190.63 326.55,-189.07"/>
</g>
<!-- 7 -->
<g id="node8" class="node">
<title>7</title>
<path fill="none" stroke="#d6d856" stroke-width="2" d="M387.5,-324C387.5,-324 278.5,-324 278.5,-324 272.5,-324 266.5,-318 266.5,-312 266.5,-312 266.5,-300 266.5,-300 266.5,-294 272.5,-288 278.5,-288 278.5,-288 387.5,-288 387.5,-288 393.5,-288 399.5,-294 399.5,-300 399.5,-300 399.5,-312 399.5,-312 399.5,-318 393.5,-324 387.5,-324"/>
<text text-anchor="middle" x="333" y="-309" font-family="sans" font-size="10.00">trim</text>
<text text-anchor="middle" x="333" y="-298" font-family="sans" font-size="10.00">sample: IS24_CCL141_2</text>
</g>
<!-- 7&#45;&gt;6 -->
<g id="edge14" class="edge">
<title>7&#45;&gt;6</title>
<path fill="none" stroke="grey" stroke-width="2" d="M333,-287.7C333,-279.98 333,-270.71 333,-262.11"/>
<polygon fill="grey" stroke="grey" stroke-width="2" points="336.5,-262.1 333,-252.1 329.5,-262.1 336.5,-262.1"/>
</g>
<!-- 8 -->
<g id="node9" class="node">
<title>8</title>
<path fill="none" stroke="#56d89a" stroke-width="2" d="M497,-252C497,-252 467,-252 467,-252 461,-252 455,-246 455,-240 455,-240 455,-228 455,-228 455,-222 461,-216 467,-216 467,-216 497,-216 497,-216 503,-216 509,-222 509,-228 509,-228 509,-240 509,-240 509,-246 503,-252 497,-252"/>
<text text-anchor="middle" x="482" y="-231.5" font-family="sans" font-size="10.00">star</text>
</g>
<!-- 8&#45;&gt;0 -->
<g id="edge6" class="edge">
<title>8&#45;&gt;0</title>
<path fill="none" stroke="grey" stroke-width="2" d="M480.48,-215.95C478.36,-197.55 473.52,-167.68 463,-144 446.98,-107.92 442.83,-95.34 411,-72 374.21,-45.03 322.91,-31.26 288.4,-24.6"/>
<polygon fill="grey" stroke="grey" stroke-width="2" points="288.73,-21.11 278.26,-22.76 287.48,-27.99 288.73,-21.11"/>
</g>
<!-- 12 -->
<g id="node13" class="node">
<title>12</title>
<path fill="none" stroke="#97d856" stroke-width="2" d="M442,-180C442,-180 412,-180 412,-180 406,-180 400,-174 400,-168 400,-168 400,-156 400,-156 400,-150 406,-144 412,-144 412,-144 442,-144 442,-144 448,-144 454,-150 454,-156 454,-156 454,-168 454,-168 454,-174 448,-180 442,-180"/>
<text text-anchor="middle" x="427" y="-159.5" font-family="sans" font-size="10.00">htseq</text>
</g>
<!-- 8&#45;&gt;12 -->
<g id="edge18" class="edge">
<title>8&#45;&gt;12</title>
<path fill="none" stroke="grey" stroke-width="2" d="M468.4,-215.7C461.88,-207.39 453.93,-197.28 446.75,-188.14"/>
<polygon fill="grey" stroke="grey" stroke-width="2" points="449.37,-185.81 440.44,-180.1 443.87,-190.13 449.37,-185.81"/>
</g>
<!-- 9 -->
<g id="node10" class="node">
<title>9</title>
<path fill="none" stroke="#d6d856" stroke-width="2" d="M544.5,-324C544.5,-324 429.5,-324 429.5,-324 423.5,-324 417.5,-318 417.5,-312 417.5,-312 417.5,-300 417.5,-300 417.5,-294 423.5,-288 429.5,-288 429.5,-288 544.5,-288 544.5,-288 550.5,-288 556.5,-294 556.5,-300 556.5,-300 556.5,-312 556.5,-312 556.5,-318 550.5,-324 544.5,-324"/>
<text text-anchor="middle" x="487" y="-309" font-family="sans" font-size="10.00">trim</text>
<text text-anchor="middle" x="487" y="-298" font-family="sans" font-size="10.00">sample: IS24_CCL141_10</text>
</g>
<!-- 9&#45;&gt;8 -->
<g id="edge15" class="edge">
<title>9&#45;&gt;8</title>
<path fill="none" stroke="grey" stroke-width="2" d="M485.76,-287.7C485.21,-279.98 484.55,-270.71 483.94,-262.11"/>
<polygon fill="grey" stroke="grey" stroke-width="2" points="487.43,-261.83 483.22,-252.1 480.44,-262.33 487.43,-261.83"/>
</g>
<!-- 10&#45;&gt;0 -->
<g id="edge7" class="edge">
<title>10&#45;&gt;0</title>
<path fill="none" stroke="grey" stroke-width="2" d="M240.74,-143.9C240.62,-125.96 240.85,-96.94 243,-72 243.73,-63.53 244.96,-54.35 246.24,-46.05"/>
<polygon fill="grey" stroke="grey" stroke-width="2" points="249.7,-46.55 247.85,-36.12 242.79,-45.43 249.7,-46.55"/>
</g>
<!-- 13 -->
<g id="node14" class="node">
<title>13</title>
<path fill="none" stroke="#59d856" stroke-width="2" d="M294,-108C294,-108 264,-108 264,-108 258,-108 252,-102 252,-96 252,-96 252,-84 252,-84 252,-78 258,-72 264,-72 264,-72 294,-72 294,-72 300,-72 306,-78 306,-84 306,-84 306,-96 306,-96 306,-102 300,-108 294,-108"/>
<text text-anchor="middle" x="279" y="-87.5" font-family="sans" font-size="10.00">deseq2</text>
</g>
<!-- 10&#45;&gt;13 -->
<g id="edge19" class="edge">
<title>10&#45;&gt;13</title>
<path fill="none" stroke="grey" stroke-width="2" d="M250.39,-143.7C254.76,-135.64 260.06,-125.89 264.9,-116.98"/>
<polygon fill="grey" stroke="grey" stroke-width="2" points="268.02,-118.56 269.71,-108.1 261.87,-115.22 268.02,-118.56"/>
</g>
<!-- 11&#45;&gt;0 -->
<g id="edge8" class="edge">
<title>11&#45;&gt;0</title>
<path fill="none" stroke="grey" stroke-width="2" d="M320.63,-143.96C323.73,-125.29 326.11,-94.95 315,-72 308.79,-59.17 297.84,-48.35 286.73,-39.89"/>
<polygon fill="grey" stroke="grey" stroke-width="2" points="288.46,-36.83 278.28,-33.9 284.41,-42.54 288.46,-36.83"/>
</g>
<!-- 11&#45;&gt;13 -->
<g id="edge20" class="edge">
<title>11&#45;&gt;13</title>
<path fill="none" stroke="grey" stroke-width="2" d="M307.61,-143.7C303.24,-135.64 297.94,-125.89 293.1,-116.98"/>
<polygon fill="grey" stroke="grey" stroke-width="2" points="296.13,-115.22 288.29,-108.1 289.98,-118.56 296.13,-115.22"/>
</g>
<!-- 12&#45;&gt;0 -->
<g id="edge9" class="edge">
<title>12&#45;&gt;0</title>
<path fill="none" stroke="grey" stroke-width="2" d="M423.26,-143.99C418.08,-124.2 406.91,-91.74 386,-72 358.81,-46.33 317.74,-32.61 288.04,-25.61"/>
<polygon fill="grey" stroke="grey" stroke-width="2" points="288.57,-22.14 278.05,-23.41 287.07,-28.98 288.57,-22.14"/>
</g>
<!-- 12&#45;&gt;13 -->
<g id="edge21" class="edge">
<title>12&#45;&gt;13</title>
<path fill="none" stroke="grey" stroke-width="2" d="M399.85,-148.16C376.15,-136.95 341.54,-120.58 315.42,-108.23"/>
<polygon fill="grey" stroke="grey" stroke-width="2" points="316.76,-104.99 306.22,-103.88 313.77,-111.32 316.76,-104.99"/>
</g>
<!-- 13&#45;&gt;0 -->
<g id="edge10" class="edge">
<title>13&#45;&gt;0</title>
<path fill="none" stroke="grey" stroke-width="2" d="M272.08,-71.7C268.93,-63.81 265.12,-54.3 261.62,-45.55"/>
<polygon fill="grey" stroke="grey" stroke-width="2" points="264.81,-44.09 257.84,-36.1 258.31,-46.69 264.81,-44.09"/>
</g>
</g>
</svg>
